<?xml version="1.0" standalone="no"?>
<!DOCTYPE svg PUBLIC "-//W3C//DTD SVG 20010904//EN"
 "http://www.w3.org/TR/2001/REC-SVG-20010904/DTD/svg10.dtd">
<svg version="1.0" xmlns="http://www.w3.org/2000/svg"
 width="512.000000pt" height="512.000000pt" viewBox="0 0 512.000000 512.000000"
 preserveAspectRatio="xMidYMid meet">
<metadata>
Created by potrace 1.15, written by Peter Selinger 2001-2017
</metadata>
<g transform="translate(0.000000,512.000000) scale(0.100000,-0.100000)"
fill="#409EFF" stroke="none">
<path d="M1763 4283 c-75 -29 -321 -1646 -444 -2920 l-12 -123 -51 0 c-66 0
-170 23 -235 51 -105 45 -181 165 -181 286 0 110 50 187 181 280 128 89 143
126 62 159 -98 42 -304 -75 -393 -222 -65 -108 -83 -226 -55 -370 20 -107 58
-177 136 -255 106 -106 242 -161 434 -175 50 -3 108 -12 130 -19 116 -37 537
-55 1325 -55 926 0 1409 24 1442 72 59 85 -320 2706 -464 3213 -20 68 -26 80
-47 83 -54 8 -182 -171 -322 -450 -34 -68 -62 -124 -63 -124 0 -1 -50 7 -111
18 -226 38 -539 40 -746 4 -48 -9 -93 -18 -100 -21 -10 -4 -32 25 -69 92 -124
219 -276 425 -339 457 -36 18 -64 25 -78 19z m444 -1201 c43 -30 66 -85 60
-138 -9 -84 -80 -141 -163 -131 -192 21 -166 310 27 294 26 -2 60 -13 76 -25z
m1230 0 c43 -30 66 -85 60 -138 -9 -84 -80 -141 -163 -131 -192 21 -166 310
27 294 26 -2 60 -13 76 -25z"/>
</g>
</svg>
